Coordinates
version=1
nRows=16
nColumns=40
inDegrees=yes

Units are S.I. units (second, meters, Newtons, ...)
Angles are in degrees.

endheader
time	pelvis_tilt	pelvis_list	pelvis_rotation	pelvis_tx	pelvis_ty	pelvis_tz	hip_flexion_r	hip_adduction_r	hip_rotation_r	knee_angle_r	knee_angle_r_beta	ankle_angle_r	subtalar_angle_r	mtp_angle_r	hip_flexion_l	hip_adduction_l	hip_rotation_l	knee_angle_l	knee_angle_l_beta	ankle_angle_l	subtalar_angle_l	mtp_angle_l	lumbar_extension	lumbar_bending	lumbar_rotation	arm_flex_r	arm_add_r	arm_rot_r	elbow_flex_r	pro_sup_r	wrist_flex_r	wrist_dev_r	arm_flex_l	arm_add_l	arm_rot_l	elbow_flex_l	pro_sup_l	wrist_flex_l	wrist_dev_l
     16.49000000	     -5.04224803	     -3.49090153	     10.53833060	      0.96494728	      0.91993781	      0.52965775	      5.47743600	      4.31721024	    -18.46660944	     16.84882907	     16.84882907	     18.16755110	     -7.23803695	     -1.98110143	     29.19586970	     -5.31189011	      0.15019202	     13.22304461	     13.22304461	      4.11706092	     -1.17999952	      1.13426011	     -9.08594997	      4.17364334	      2.51101150	     50.25417021	    -18.72798287	     -9.57568968	     72.38954095	     44.95487369	      0.00000000	      0.00000000	    -19.27641146	     -8.21475230	     15.54805637	     32.06313410	     43.42263093	      0.00000000	      0.00000000
     16.50871429	     -5.09275133	     -3.64055918	     10.57015472	      0.96541053	      0.91875863	      0.52808276	      5.17170067	      4.42107503	    -18.44951891	     16.97694865	     16.97694865	     18.53432506	     -7.21892090	     -2.05805527	     29.02189998	     -5.35791151	     -0.01685440	     13.42295283	     13.42295283	      3.32082125	     -1.40990311	      0.78020423	     -8.98671053	      4.14927316	      2.62282932	     51.14371970	    -18.62653213	     -9.50079029	     72.86839857	     44.94496375	      0.00000000	      0.00000000	    -19.14260714	     -8.16027657	     15.71817166	     32.05353083	     43.42214056	      0.00000000	      0.00000000
     16.52742857	     -5.14171358	     -3.72966536	     10.56575340	      0.96610802	      0.91763232	      0.52634874	      4.82812897	      4.45229350	    -18.40219245	     17.08955872	     17.08955872	     18.88903401	     -7.19758039	     -2.09523074	     28.90907668	     -5.36433659	     -0.11494045	     13.84754045	     13.84754045	      2.38831458	     -1.81169742	      0.35364690	     -8.89101069	      4.03632855	      2.60290983	     51.80664273	    -18.42938256	     -9.38288260	     73.36531059	     44.93122995	      0.00000000	      0.00000000	    -18.92528113	     -8.13989418	     15.87214654	     31.99990104	     43.42206060	      0.00000000	      0.00000000
     16.54614286	     -5.13572696	     -3.79801178	     10.57275003	      0.96712116	      0.91654617	      0.52426597	      4.44974005	      4.41804169	    -18.45070313	     17.34172081	     17.34172081	     19.49135000	     -7.00505262	     -1.56076764	     28.51093586	     -5.24128751	      0.48759412	     13.79156564	     13.79156564	     -0.30493724	     -3.68286074	     -3.60491681	     -8.83289903	      3.96009623	      2.69231249	     51.94474153	    -18.47614112	     -9.02555089	     74.51327763	     44.91661627	      0.00000000	      0.00000000	    -18.38316389	     -8.16674609	     16.83692793	     31.35379751	     43.43802254	      0.00000000	      0.00000000
     16.56485714	     -5.12908148	     -3.83793581	     10.54521623	      0.96822417	      0.91570933	      0.52213054	      3.97654922	      4.39831490	    -18.33595358	     17.38997156	     17.38997156	     19.77429383	     -6.97981457	     -1.60085960	     28.56778495	     -5.21245024	      0.58369260	     14.75198756	     14.75198756	     -0.90107695	     -4.21473953	     -3.65448599	     -8.79119590	      3.81587519	      2.70683684	     52.23408562	    -18.38287500	     -9.03302574	     74.69851471	     44.91614602	      0.00000000	      0.00000000	    -17.99713090	     -8.25286751	     16.89172517	     31.39608697	     43.45262249	      0.00000000	      0.00000000
     16.58357143	     -5.18084579	     -3.89221380	     10.52456004	      0.96945013	      0.91496040	      0.51970725	      3.55895564	      4.34883399	    -18.29606554	     17.44648491	     17.44648491	     20.01843230	     -6.90117641	     -1.54923337	     28.77070078	     -5.11508371	      1.03351537	     15.86637315	     15.86637315	     -1.47411726	     -5.30508537	     -3.76083577	     -8.66824287	      3.71188740	      2.71435997	     52.27341818	    -18.28396405	     -9.03446330	     75.04338802	     44.91488051	      0.00000000	      0.00000000	    -17.45058900	     -8.34587524	     17.03008858	     31.26097976	     43.48117338	      0.00000000	      0.00000000
     16.60228571	     -5.13800888	     -3.86541086	     10.44659257	      0.97092721	      0.91459364	      0.51703034	      2.98515629	      4.20776771	    -18.21559639	     17.45937343	     17.45937343	     20.17573047	     -6.76442466	     -1.52586875	     28.85797855	     -4.97080976	      1.40989604	     17.04988532	     17.04988532	     -1.70190455	     -6.27056936	     -3.75768625	     -8.68097777	      3.56300532	      2.77025887	     52.22379629	    -18.25949409	     -9.03197991	     75.19345768	     44.91545733	      0.00000000	      0.00000000	    -16.89019869	     -8.47010441	     17.06508707	     31.20242121	     43.50759173	      0.00000000	      0.00000000
     16.62100000	     -5.13390492	     -3.71826057	     10.30730921	      0.97258001	      0.91458047	      0.51422057	      2.39668386	      3.92642125	    -18.07194629	     17.42100014	     17.42100014	     20.22705261	     -6.64988486	     -1.50011010	     28.82376747	     -4.74069570	      1.54240277	     18.02480300	     18.02480300	     -1.73389226	     -6.93565569	     -3.78101746	     -8.64920184	      3.23656819	      2.80788110	     51.98800791	    -18.06286425	     -8.94657287	     75.16860200	     44.91404831	      0.00000000	      0.00000000	    -16.24921978	     -8.67936616	     17.02427885	     31.28211959	     43.52954911	      0.00000000	      0.00000000
     16.63971429	     -5.10893981	     -3.81290752	     10.16573628	      0.97425546	      0.91447786	      0.51108959	      1.79517881	      3.85848238	    -18.08526142	     17.33645938	     17.33645938	     20.24434251	     -6.21794683	     -1.50739750	     29.10127290	     -4.61450573	      2.31330571	     19.55482341	     19.55482341	     -1.37780991	     -8.47276363	     -3.50001122	     -8.63334982	      3.31543305	      3.01783119	     51.78723263	    -18.27111659	     -9.01093359	     75.10339652	     44.92285157	      0.00000000	      0.00000000	    -15.69835936	     -8.80552689	     16.98685106	     31.22507008	     43.56298543	      0.00000000	      0.00000000
     16.65842857	     -5.15709576	     -3.77488291	      9.94838156	      0.97597714	      0.91472212	      0.50771798	      1.23262523	      3.57969704	    -18.19274539	     17.22644866	     17.22644866	     20.14595491	     -5.57658306	     -1.55298400	     29.21561278	     -4.31465309	      3.00256181	     20.74952289	     20.74952289	     -0.83788027	    -10.05699594	     -2.52695658	     -8.57177019	      3.26322888	      3.34326198	     51.34276170	    -18.47133132	     -9.05325641	     74.86935586	     44.93872232	      0.00000000	      0.00000000	    -14.90714573	     -8.99851385	     16.89640357	     31.18126280	     43.62023785	      0.00000000	      0.00000000
     16.67714286	     -5.16371375	     -3.61570796	      9.61846162	      0.97792399	      0.91521835	      0.50437073	      0.64634698	      3.18826384	    -17.98267454	     17.20298917	     17.20298917	     20.03075204	     -5.28639146	     -1.53556801	     29.07082606	     -4.05964180	      3.05353824	     21.64413991	     21.64413991	     -0.33624338	    -10.80014751	     -2.50034226	     -8.54852704	      3.07329849	      3.49051857	     50.85185985	    -18.21943657	     -8.94406508	     74.62939168	     44.94238363	      0.00000000	      0.00000000	    -14.29469022	     -9.22312590	     16.81690415	     31.31339943	     43.64662311	      0.00000000	      0.00000000
     16.69585714	     -5.22961434	     -3.69765579	      9.32142946	      0.97972973	      0.91560032	      0.50055311	      0.07169574	      2.93387799	    -18.36293663	     17.01776687	     17.01776687	     19.82809992	     -4.05739646	     -1.79987974	     29.20546915	     -3.79783387	      3.87094019	     22.89118239	     22.89118239	      0.74229463	    -12.48627925	     -0.65153129	     -8.44690047	      3.23801987	      4.03074764	     50.48091666	    -18.72176171	     -9.15902662	     73.60688593	     44.99285415	      0.00000000	      0.00000000	    -13.58345260	     -9.41811973	     16.57245368	     31.58564690	     43.73117427	      0.00000000	      0.00000000
     16.71457143	     -5.23492147	     -3.60043983	      8.87019403	      0.98172118	      0.91616499	      0.49697439	     -0.46365635	      2.53912211	    -18.11524660	     17.05409276	     17.05409276	     19.63528297	     -3.66991705	     -1.81349698	     29.02123355	     -3.61554463	      3.79315011	     23.75088643	     23.75088643	      1.40689466	    -13.21977319	     -0.55805319	     -8.48614522	      3.18167518	      4.17665786	     49.90462316	    -18.42404218	     -9.05905233	     73.19593059	     45.00217937	      0.00000000	      0.00000000	    -13.03717646	     -9.63828583	     16.46873156	     31.78422837	     43.76028595	      0.00000000	      0.00000000
     16.73328571	     -5.35692926	     -3.55610943	      8.47894878	      0.98346247	      0.91658071	      0.49283471	     -0.89381009	      1.99525228	    -18.71958911	     17.07393713	     17.07393713	     19.31568876	     -2.02791928	     -2.72771950	     29.20460627	     -3.25215826	      4.23150246	     25.15207452	     25.15207452	      3.89552831	    -13.87053013	      4.36020008	     -8.36231336	      3.24027012	      4.08556156	     50.10332224	    -17.95961076	     -9.34615214	     70.53622540	     45.12823781	      0.00000000	      0.00000000	    -12.90229459	     -9.85767936	     15.71014569	     32.87503473	     43.98762259	      0.00000000	      0.00000000
     16.75200000	     -5.40840766	     -3.65133106	      7.98355943	      0.98532481	      0.91697186	      0.48896191	     -1.36966892	      1.74626788	    -18.55134613	     17.02866729	     17.02866729	     19.04233452	     -1.39887461	     -2.79443009	     29.09091362	     -3.21601148	      4.22077494	     25.99441731	     25.99441731	      4.60534751	    -14.61796734	      4.56959080	     -8.33998692	      3.48417026	      4.58595407	     49.45948018	    -18.17225342	     -9.42674591	     69.43367724	     45.17017347	      0.00000000	      0.00000000	    -12.22978610	    -10.08719584	     15.41014557	     33.41524106	     44.05916222	      0.00000000	      0.00000000
     16.77071429	     -5.50111593	     -3.67947586	      7.45936904	      0.98715115	      0.91729643	      0.48483715	     -1.73791532	      1.30800760	    -18.64279239	     17.15161244	     17.15161244	     18.82215111	     -0.32925585	     -3.10318138	     28.92668743	     -3.08160525	      4.18383796	     26.70800810	     26.70800810	      5.44695382	    -15.31934185	      5.32205986	     -8.27333479	      3.65656754	      5.00625896	     48.91822056	    -18.28708280	     -9.68828034	     67.62706909	     45.24396856	      0.00000000	      0.00000000	    -11.66269916	    -10.33740522	     15.01307576	     34.24823613	     44.14997932	      0.00000000	      0.00000000
